{"accessors":[{"name":"Node-Mesh_positions","componentType":5126,"count":1808,"min":[-16.285024642944336,0,-4],"max":[16.285024642944336,33.68172073364258,4],"type":"VEC3","bufferView":0,"byteOffset":0},{"name":"Node-Mesh_normals","componentType":5126,"count":1808,"min":[-1,-1,-1],"max":[1,1,1],"type":"VEC3","bufferView":0,"byteOffset":21696},{"name":"Node-Mesh_texcoords","componentType":5126,"count":1808,"min":[0,0],"max":[1,1],"type":"VEC2","bufferView":1,"byteOffset":0},{"name":"Node-Mesh_0_indices","componentType":5123,"count":5364,"min":[0],"max":[1807],"type":"SCALAR","bufferView":2,"byteOffset":0}],"asset":{"generator":"obj2gltf","version":"2.0"},"buffers":[{"name":"Shosh","byteLength":68584,"uri":"data:application/octet-stream;base64,"}],"bufferViews":[{"name":"bufferView_0","buffer":0,"byteLength":43392,"byteOffset":0,"byteStride":12,"target":34962},{"name":"bufferView_1","buffer":0,"byteLength":14464,"byteOffset":43392,"byteStride":8,"target":34962},{"name":"bufferView_2","buffer":0,"byteLength":10728,"byteOffset":57856,"target":34963}],"materials":[{"name":"Gold","pbrMetallicRoughness":{"baseColorFactor":[0,0,0,1],"metallicFactor":0,"roughnessFactor":0.745},"emissiveFactor":[0,0,0],"alphaMode":"OPAQUE","doubleSided":false}],"meshes":[{"name":"Node-Mesh","primitives":[{"attributes":{"POSITION":0,"NORMAL":1,"TEXCOORD_0":2},"indices":3,"material":0,"mode":4}]}],"nodes":[{"name":"Node","mesh":0}],"scene":0,"scenes":[{"nodes":[0]}]}
